<svg xmlns="http://www.w3.org/2000/svg" xmlns:xlink="http://www.w3.org/1999/xlink" width="500" zoomAndPan="magnify" viewBox="0 0 375 374.999991" height="500" preserveAspectRatio="xMidYMid meet" version="1.0"><defs><g/><clipPath id="843fe9c209"><path d="M 220.304688 213.71875 L 248.089844 213.71875 L 248.089844 241.5 L 220.304688 241.5 Z M 220.304688 213.71875 " clip-rule="nonzero"/></clipPath><clipPath id="9577f68e64"><path d="M 234.195312 213.71875 C 226.523438 213.71875 220.304688 219.9375 220.304688 227.609375 C 220.304688 235.28125 226.523438 241.5 234.195312 241.5 C 241.867188 241.5 248.089844 235.28125 248.089844 227.609375 C 248.089844 219.9375 241.867188 213.71875 234.195312 213.71875 Z M 234.195312 213.71875 " clip-rule="nonzero"/></clipPath></defs><g fill="#8c52ff" fill-opacity="1"><g transform="translate(157.90736, 240.731204)"><g><path d="M 5.0625 -114.578125 L 36.15625 -114.578125 C 44.507812 -114.578125 50.578125 -112.53125 54.359375 -108.4375 C 58.140625 -104.351562 60.03125 -97.6875 60.03125 -88.4375 L 60.03125 -83.375 C 60.03125 -72.4375 56.113281 -65.898438 48.28125 -63.765625 C 53.082031 -62.515625 56.460938 -59.617188 58.421875 -55.078125 C 60.378906 -50.546875 61.359375 -44.546875 61.359375 -37.078125 C 61.359375 -24.898438 59.535156 -15.675781 55.890625 -9.40625 C 52.242188 -3.132812 45.664062 0 36.15625 0 L 5.0625 0 Z M 32.140625 -71.5 C 34.097656 -71.5 35.429688 -72.234375 36.140625 -73.703125 C 36.859375 -75.171875 37.21875 -77.238281 37.21875 -79.90625 L 37.21875 -91.375 C 37.21875 -95.101562 35.570312 -96.96875 32.28125 -96.96875 L 27.484375 -96.96875 L 27.484375 -71.5 Z M 29.75 -20.140625 C 35.707031 -20.140625 38.6875 -22.984375 38.6875 -28.671875 L 38.6875 -42.953125 C 38.6875 -46.421875 38.171875 -49.039062 37.140625 -50.8125 C 36.117188 -52.59375 34.320312 -53.484375 31.75 -53.484375 L 27.484375 -53.484375 L 27.484375 -20.28125 Z M 29.75 -20.140625 "/></g></g></g><g clip-path="url(#843fe9c209)"><g clip-path="url(#9577f68e64)"><path fill="#5e17eb" d="M 220.304688 213.71875 L 248.089844 213.71875 L 248.089844 241.5 L 220.304688 241.5 Z M 220.304688 213.71875 " fill-opacity="1" fill-rule="nonzero"/></g></g><g fill="#ffffff" fill-opacity="1"><g transform="translate(155.86661, 241.49811)"><g><path d="M -19.53125 -1.421875 L -19.53125 -7.484375 C -19.53125 -9.304688 -19.140625 -10.765625 -18.359375 -11.859375 C -17.578125 -12.953125 -16.3125 -13.5 -14.5625 -13.5 C -12.601562 -13.5 -11.207031 -12.6875 -10.375 -11.0625 C -9.882812 -13.832031 -8.238281 -15.21875 -5.4375 -15.21875 C -3.800781 -15.21875 -2.484375 -14.648438 -1.484375 -13.515625 C -0.492188 -12.378906 0 -10.816406 0 -8.828125 L 0 -1.421875 Z M -11.890625 -5.875 L -11.890625 -6.21875 C -11.890625 -7.21875 -12.0625 -7.960938 -12.40625 -8.453125 C -12.75 -8.941406 -13.316406 -9.1875 -14.109375 -9.1875 C -15.429688 -9.1875 -16.09375 -8.195312 -16.09375 -6.21875 L -16.09375 -5.875 Z M -3.4375 -5.875 L -3.4375 -7.265625 C -3.4375 -9.441406 -4.160156 -10.53125 -5.609375 -10.53125 C -6.472656 -10.53125 -7.09375 -10.257812 -7.46875 -9.71875 C -7.851562 -9.175781 -8.046875 -8.359375 -8.046875 -7.265625 L -8.046875 -5.875 Z M -3.4375 -5.875 "/></g></g></g><g fill="#ffffff" fill-opacity="1"><g transform="translate(155.86661, 227.352196)"><g><path d="M -19.53125 -5.875 L -3.90625 -5.875 L -3.90625 -12.59375 L 0 -12.59375 L 0 -1.421875 L -19.53125 -1.421875 Z M -19.53125 -5.875 "/></g></g></g><g fill="#ffffff" fill-opacity="1"><g transform="translate(155.86661, 215.595643)"><g><path d="M -9.78125 -0.546875 C -12.601562 -0.546875 -14.992188 -1.507812 -16.953125 -3.4375 C -18.910156 -5.363281 -19.890625 -7.679688 -19.890625 -10.390625 C -19.890625 -13.117188 -18.910156 -15.4375 -16.953125 -17.34375 C -15.003906 -19.257812 -12.613281 -20.21875 -9.78125 -20.21875 C -6.914062 -20.21875 -4.507812 -19.273438 -2.5625 -17.390625 C -0.613281 -15.515625 0.359375 -13.179688 0.359375 -10.390625 C 0.359375 -7.535156 -0.601562 -5.179688 -2.53125 -3.328125 C -4.46875 -1.472656 -6.882812 -0.546875 -9.78125 -0.546875 Z M -9.78125 -5.34375 C -8.75 -5.34375 -7.8125 -5.5 -6.96875 -5.8125 C -6.125 -6.132812 -5.410156 -6.6875 -4.828125 -7.46875 C -4.242188 -8.257812 -3.953125 -9.234375 -3.953125 -10.390625 C -3.953125 -12.046875 -4.519531 -13.296875 -5.65625 -14.140625 C -6.789062 -14.984375 -8.164062 -15.40625 -9.78125 -15.40625 C -11.375 -15.40625 -12.738281 -14.972656 -13.875 -14.109375 C -15.019531 -13.253906 -15.59375 -12.015625 -15.59375 -10.390625 C -15.59375 -8.785156 -15.019531 -7.539062 -13.875 -6.65625 C -12.738281 -5.78125 -11.375 -5.34375 -9.78125 -5.34375 Z M -9.78125 -5.34375 "/></g></g></g><g fill="#ffffff" fill-opacity="1"><g transform="translate(155.86661, 196.458069)"><g><path d="M -10.9375 -19.078125 L -6.703125 -19.078125 C -4.378906 -18.578125 -2.617188 -17.472656 -1.421875 -15.765625 C -0.234375 -14.054688 0.359375 -12.15625 0.359375 -10.0625 C 0.359375 -7.425781 -0.625 -5.179688 -2.59375 -3.328125 C -4.570312 -1.472656 -6.957031 -0.546875 -9.75 -0.546875 C -12.59375 -0.546875 -14.992188 -1.453125 -16.953125 -3.265625 C -18.910156 -5.078125 -19.890625 -7.34375 -19.890625 -10.0625 C -19.890625 -13.226562 -18.773438 -15.738281 -16.546875 -17.59375 L -13.34375 -14.671875 C -15.019531 -13.628906 -15.859375 -12.179688 -15.859375 -10.328125 C -15.859375 -8.953125 -15.257812 -7.773438 -14.0625 -6.796875 C -12.875 -5.828125 -11.4375 -5.34375 -9.75 -5.34375 C -8.09375 -5.34375 -6.675781 -5.828125 -5.5 -6.796875 C -4.320312 -7.773438 -3.734375 -8.953125 -3.734375 -10.328125 C -3.734375 -11.460938 -4.078125 -12.453125 -4.765625 -13.296875 C -5.453125 -14.140625 -6.363281 -14.5625 -7.5 -14.5625 L -7.5 -10.0625 L -10.9375 -10.0625 Z M -10.9375 -19.078125 "/></g></g></g><g fill="#ffffff" fill-opacity="1"><g transform="translate(155.86661, 178.45604)"><g><path d="M -19.53125 -12.59375 L -15.625 -12.59375 L -15.625 -5.875 L -11.734375 -5.875 L -11.734375 -12.3125 L -7.828125 -12.3125 L -7.828125 -5.875 L -3.90625 -5.875 L -3.90625 -12.59375 L 0 -12.59375 L 0 -1.421875 L -19.53125 -1.421875 Z M -19.53125 -12.59375 "/></g></g></g><g fill="#ffffff" fill-opacity="1"><g transform="translate(155.86661, 166.344639)"><g><path d="M 0 -19.6875 L 0 -13.9375 L -6.65625 -9.328125 L 0 -4.703125 L 0 0.8125 L -10.515625 -6.578125 L -19.53125 -0.421875 L -19.53125 -5.734375 L -14.203125 -9.328125 L -19.53125 -12.921875 L -19.53125 -18.46875 L -10.515625 -12.078125 Z M 0 -19.6875 "/></g></g></g><g fill="#ffffff" fill-opacity="1"><g transform="translate(138.955291, 254.85426)"><g><path d="M 7.546875 -7.65625 C 7.691406 -7.644531 7.816406 -7.585938 7.921875 -7.484375 C 8.023438 -7.390625 8.078125 -7.269531 8.078125 -7.125 L 8.078125 -0.53125 C 8.078125 -0.382812 8.023438 -0.257812 7.921875 -0.15625 C 7.828125 -0.0507812 7.695312 0 7.53125 0 C 7.375 0 7.242188 -0.046875 7.140625 -0.140625 C 7.035156 -0.242188 6.984375 -0.375 6.984375 -0.53125 L 6.984375 -5.578125 L 4.875 -2.375 C 4.820312 -2.300781 4.753906 -2.242188 4.671875 -2.203125 C 4.597656 -2.160156 4.519531 -2.144531 4.4375 -2.15625 C 4.375 -2.144531 4.300781 -2.160156 4.21875 -2.203125 C 4.144531 -2.242188 4.082031 -2.300781 4.03125 -2.375 L 1.90625 -5.671875 L 1.90625 -0.53125 C 1.90625 -0.375 1.859375 -0.242188 1.765625 -0.140625 C 1.671875 -0.046875 1.546875 0 1.390625 0 C 1.242188 0 1.125 -0.046875 1.03125 -0.140625 C 0.945312 -0.242188 0.90625 -0.375 0.90625 -0.53125 L 0.90625 -7.125 C 0.90625 -7.269531 0.957031 -7.394531 1.0625 -7.5 C 1.164062 -7.601562 1.289062 -7.65625 1.4375 -7.65625 C 1.53125 -7.65625 1.617188 -7.632812 1.703125 -7.59375 C 1.785156 -7.550781 1.851562 -7.492188 1.90625 -7.421875 L 4.484375 -3.5 L 7.109375 -7.421875 C 7.222656 -7.578125 7.367188 -7.65625 7.546875 -7.65625 Z M 7.546875 -7.65625 "/></g></g></g><g fill="#ffffff" fill-opacity="1"><g transform="translate(149.862361, 254.85426)"><g><path d="M 6.328125 -7.65625 C 6.472656 -7.65625 6.59375 -7.601562 6.6875 -7.5 C 6.78125 -7.40625 6.828125 -7.28125 6.828125 -7.125 L 6.828125 -2.9375 C 6.828125 -2.363281 6.695312 -1.847656 6.4375 -1.390625 C 6.1875 -0.929688 5.835938 -0.570312 5.390625 -0.3125 C 4.941406 -0.0507812 4.4375 0.078125 3.875 0.078125 C 3.3125 0.078125 2.800781 -0.0507812 2.34375 -0.3125 C 1.894531 -0.570312 1.539062 -0.929688 1.28125 -1.390625 C 1.03125 -1.847656 0.90625 -2.363281 0.90625 -2.9375 L 0.90625 -7.125 C 0.90625 -7.28125 0.957031 -7.40625 1.0625 -7.5 C 1.164062 -7.601562 1.296875 -7.65625 1.453125 -7.65625 C 1.585938 -7.65625 1.707031 -7.601562 1.8125 -7.5 C 1.925781 -7.394531 1.984375 -7.269531 1.984375 -7.125 L 1.984375 -2.9375 C 1.984375 -2.5625 2.066406 -2.222656 2.234375 -1.921875 C 2.410156 -1.617188 2.644531 -1.382812 2.9375 -1.21875 C 3.226562 -1.050781 3.539062 -0.96875 3.875 -0.96875 C 4.226562 -0.96875 4.550781 -1.050781 4.84375 -1.21875 C 5.144531 -1.382812 5.382812 -1.617188 5.5625 -1.921875 C 5.738281 -2.222656 5.828125 -2.5625 5.828125 -2.9375 L 5.828125 -7.125 C 5.828125 -7.28125 5.867188 -7.40625 5.953125 -7.5 C 6.046875 -7.601562 6.171875 -7.65625 6.328125 -7.65625 Z M 6.328125 -7.65625 "/></g></g></g><g fill="#ffffff" fill-opacity="1"><g transform="translate(159.524777, 254.85426)"><g><path d="M 6.734375 -0.875 C 6.804688 -0.820312 6.863281 -0.753906 6.90625 -0.671875 C 6.945312 -0.597656 6.96875 -0.523438 6.96875 -0.453125 C 6.96875 -0.296875 6.914062 -0.179688 6.8125 -0.109375 C 6.71875 -0.0351562 6.601562 0 6.46875 0 C 6.332031 0 6.210938 -0.03125 6.109375 -0.09375 C 5.890625 -0.207031 5.710938 -0.40625 5.578125 -0.6875 C 5.441406 -0.96875 5.375 -1.375 5.375 -1.90625 C 5.375 -2.269531 5.265625 -2.539062 5.046875 -2.71875 C 4.828125 -2.894531 4.539062 -2.984375 4.1875 -2.984375 L 1.984375 -2.984375 L 1.984375 -0.53125 C 1.984375 -0.375 1.9375 -0.242188 1.84375 -0.140625 C 1.757812 -0.046875 1.648438 0 1.515625 0 C 1.347656 0 1.203125 -0.0507812 1.078125 -0.15625 C 0.960938 -0.257812 0.90625 -0.382812 0.90625 -0.53125 L 0.90625 -7.125 C 0.90625 -7.269531 0.957031 -7.390625 1.0625 -7.484375 C 1.164062 -7.585938 1.289062 -7.640625 1.4375 -7.640625 L 4.5 -7.640625 C 4.894531 -7.640625 5.253906 -7.539062 5.578125 -7.34375 C 5.910156 -7.15625 6.171875 -6.890625 6.359375 -6.546875 C 6.554688 -6.210938 6.65625 -5.835938 6.65625 -5.421875 C 6.65625 -5.015625 6.546875 -4.632812 6.328125 -4.28125 C 6.109375 -3.925781 5.832031 -3.660156 5.5 -3.484375 C 5.757812 -3.347656 5.96875 -3.15625 6.125 -2.90625 C 6.289062 -2.65625 6.378906 -2.367188 6.390625 -2.046875 C 6.421875 -1.628906 6.453125 -1.34375 6.484375 -1.1875 C 6.523438 -1.039062 6.609375 -0.9375 6.734375 -0.875 Z M 4.484375 -3.890625 C 4.660156 -3.898438 4.832031 -3.96875 5 -4.09375 C 5.164062 -4.226562 5.296875 -4.40625 5.390625 -4.625 C 5.492188 -4.851562 5.546875 -5.109375 5.546875 -5.390625 C 5.546875 -5.734375 5.4375 -6.023438 5.21875 -6.265625 C 5.007812 -6.515625 4.75 -6.640625 4.4375 -6.640625 L 1.984375 -6.640625 L 1.984375 -3.890625 Z M 4.484375 -3.890625 "/></g></g></g><g fill="#ffffff" fill-opacity="1"><g transform="translate(168.881493, 254.85426)"><g><path d="M 1.984375 -0.53125 C 1.984375 -0.382812 1.925781 -0.257812 1.8125 -0.15625 C 1.707031 -0.0507812 1.582031 0 1.4375 0 C 1.28125 0 1.148438 -0.0507812 1.046875 -0.15625 C 0.953125 -0.257812 0.90625 -0.382812 0.90625 -0.53125 L 0.90625 -7.125 C 0.90625 -7.269531 0.957031 -7.390625 1.0625 -7.484375 C 1.164062 -7.585938 1.296875 -7.640625 1.453125 -7.640625 C 1.597656 -7.640625 1.722656 -7.585938 1.828125 -7.484375 C 1.929688 -7.390625 1.984375 -7.269531 1.984375 -7.125 Z M 1.984375 -0.53125 "/></g></g></g><g fill="#ffffff" fill-opacity="1"><g transform="translate(173.707235, 254.85426)"><g><path d="M 5.125 -1.015625 C 5.28125 -1.015625 5.40625 -0.96875 5.5 -0.875 C 5.59375 -0.78125 5.640625 -0.65625 5.640625 -0.5 C 5.640625 -0.351562 5.59375 -0.234375 5.5 -0.140625 C 5.40625 -0.046875 5.28125 0 5.125 0 L 1.4375 0 C 1.28125 0 1.148438 -0.0507812 1.046875 -0.15625 C 0.953125 -0.257812 0.90625 -0.382812 0.90625 -0.53125 L 0.90625 -7.125 C 0.90625 -7.269531 0.957031 -7.390625 1.0625 -7.484375 C 1.164062 -7.585938 1.296875 -7.640625 1.453125 -7.640625 C 1.597656 -7.640625 1.722656 -7.585938 1.828125 -7.484375 C 1.929688 -7.390625 1.984375 -7.269531 1.984375 -7.125 L 1.984375 -1.015625 Z M 5.125 -1.015625 "/></g></g></g><g fill="#ffffff" fill-opacity="1"><g transform="translate(181.644609, 254.85426)"><g><path d="M 7.859375 -3.828125 C 7.859375 -3.085938 7.695312 -2.414062 7.375 -1.8125 C 7.0625 -1.21875 6.625 -0.75 6.0625 -0.40625 C 5.5 -0.0625 4.863281 0.109375 4.15625 0.109375 C 3.457031 0.109375 2.828125 -0.0625 2.265625 -0.40625 C 1.703125 -0.75 1.257812 -1.21875 0.9375 -1.8125 C 0.625 -2.414062 0.46875 -3.085938 0.46875 -3.828125 C 0.46875 -4.554688 0.625 -5.21875 0.9375 -5.8125 C 1.257812 -6.414062 1.703125 -6.890625 2.265625 -7.234375 C 2.828125 -7.578125 3.457031 -7.75 4.15625 -7.75 C 4.863281 -7.75 5.5 -7.578125 6.0625 -7.234375 C 6.625 -6.890625 7.0625 -6.414062 7.375 -5.8125 C 7.695312 -5.21875 7.859375 -4.554688 7.859375 -3.828125 Z M 6.734375 -3.828125 C 6.734375 -4.367188 6.625 -4.859375 6.40625 -5.296875 C 6.1875 -5.742188 5.878906 -6.09375 5.484375 -6.34375 C 5.097656 -6.59375 4.65625 -6.71875 4.15625 -6.71875 C 3.664062 -6.71875 3.222656 -6.59375 2.828125 -6.34375 C 2.441406 -6.09375 2.140625 -5.75 1.921875 -5.3125 C 1.703125 -4.875 1.59375 -4.378906 1.59375 -3.828125 C 1.59375 -3.273438 1.703125 -2.78125 1.921875 -2.34375 C 2.140625 -1.90625 2.441406 -1.554688 2.828125 -1.296875 C 3.222656 -1.046875 3.664062 -0.921875 4.15625 -0.921875 C 4.65625 -0.921875 5.097656 -1.046875 5.484375 -1.296875 C 5.878906 -1.554688 6.1875 -1.90625 6.40625 -2.34375 C 6.625 -2.78125 6.734375 -3.273438 6.734375 -3.828125 Z M 6.734375 -3.828125 "/></g></g></g><g fill="#ffffff" fill-opacity="1"><g transform="translate(191.896589, 254.85426)"><g><path d="M 6.625 -7.640625 C 6.757812 -7.640625 6.867188 -7.59375 6.953125 -7.5 C 7.046875 -7.414062 7.09375 -7.304688 7.09375 -7.171875 L 7.09375 -0.53125 C 7.09375 -0.382812 7.039062 -0.257812 6.9375 -0.15625 C 6.84375 -0.0507812 6.71875 0 6.5625 0 C 6.476562 0 6.398438 -0.0078125 6.328125 -0.03125 C 6.253906 -0.0625 6.195312 -0.101562 6.15625 -0.15625 L 1.859375 -5.75 L 1.859375 -0.484375 C 1.859375 -0.335938 1.8125 -0.21875 1.71875 -0.125 C 1.625 -0.0390625 1.507812 0 1.375 0 C 1.238281 0 1.125 -0.0390625 1.03125 -0.125 C 0.945312 -0.21875 0.90625 -0.335938 0.90625 -0.484375 L 0.90625 -7.125 C 0.90625 -7.269531 0.953125 -7.390625 1.046875 -7.484375 C 1.148438 -7.585938 1.273438 -7.640625 1.421875 -7.640625 C 1.503906 -7.640625 1.585938 -7.625 1.671875 -7.59375 C 1.753906 -7.5625 1.816406 -7.515625 1.859375 -7.453125 L 6.140625 -1.859375 L 6.140625 -7.171875 C 6.140625 -7.304688 6.179688 -7.414062 6.265625 -7.5 C 6.359375 -7.59375 6.476562 -7.640625 6.625 -7.640625 Z M 6.625 -7.640625 "/></g></g></g><g fill="#ffffff" fill-opacity="1"><g transform="translate(201.82103, 254.85426)"><g><path d="M 5.234375 -1 C 5.390625 -1 5.515625 -0.945312 5.609375 -0.84375 C 5.703125 -0.75 5.75 -0.628906 5.75 -0.484375 C 5.75 -0.335938 5.703125 -0.21875 5.609375 -0.125 C 5.515625 -0.0390625 5.390625 0 5.234375 0 L 1.4375 0 C 1.289062 0 1.164062 -0.0507812 1.0625 -0.15625 C 0.957031 -0.257812 0.90625 -0.382812 0.90625 -0.53125 L 0.90625 -7.125 C 0.90625 -7.269531 0.957031 -7.390625 1.0625 -7.484375 C 1.164062 -7.585938 1.289062 -7.640625 1.4375 -7.640625 L 5.234375 -7.640625 C 5.390625 -7.640625 5.515625 -7.59375 5.609375 -7.5 C 5.703125 -7.40625 5.75 -7.28125 5.75 -7.125 C 5.75 -6.976562 5.703125 -6.859375 5.609375 -6.765625 C 5.515625 -6.679688 5.390625 -6.640625 5.234375 -6.640625 L 1.984375 -6.640625 L 1.984375 -4.40625 L 4.734375 -4.40625 C 4.890625 -4.40625 5.015625 -4.359375 5.109375 -4.265625 C 5.210938 -4.171875 5.265625 -4.050781 5.265625 -3.90625 C 5.265625 -3.757812 5.210938 -3.640625 5.109375 -3.546875 C 5.015625 -3.460938 4.890625 -3.421875 4.734375 -3.421875 L 1.984375 -3.421875 L 1.984375 -1 Z M 5.234375 -1 "/></g></g></g><g fill="#ffffff" fill-opacity="1"><g transform="translate(209.976754, 254.85426)"><g><path d="M 6.734375 -0.875 C 6.804688 -0.820312 6.863281 -0.753906 6.90625 -0.671875 C 6.945312 -0.597656 6.96875 -0.523438 6.96875 -0.453125 C 6.96875 -0.296875 6.914062 -0.179688 6.8125 -0.109375 C 6.71875 -0.0351562 6.601562 0 6.46875 0 C 6.332031 0 6.210938 -0.03125 6.109375 -0.09375 C 5.890625 -0.207031 5.710938 -0.40625 5.578125 -0.6875 C 5.441406 -0.96875 5.375 -1.375 5.375 -1.90625 C 5.375 -2.269531 5.265625 -2.539062 5.046875 -2.71875 C 4.828125 -2.894531 4.539062 -2.984375 4.1875 -2.984375 L 1.984375 -2.984375 L 1.984375 -0.53125 C 1.984375 -0.375 1.9375 -0.242188 1.84375 -0.140625 C 1.757812 -0.046875 1.648438 0 1.515625 0 C 1.347656 0 1.203125 -0.0507812 1.078125 -0.15625 C 0.960938 -0.257812 0.90625 -0.382812 0.90625 -0.53125 L 0.90625 -7.125 C 0.90625 -7.269531 0.957031 -7.390625 1.0625 -7.484375 C 1.164062 -7.585938 1.289062 -7.640625 1.4375 -7.640625 L 4.5 -7.640625 C 4.894531 -7.640625 5.253906 -7.539062 5.578125 -7.34375 C 5.910156 -7.15625 6.171875 -6.890625 6.359375 -6.546875 C 6.554688 -6.210938 6.65625 -5.835938 6.65625 -5.421875 C 6.65625 -5.015625 6.546875 -4.632812 6.328125 -4.28125 C 6.109375 -3.925781 5.832031 -3.660156 5.5 -3.484375 C 5.757812 -3.347656 5.96875 -3.15625 6.125 -2.90625 C 6.289062 -2.65625 6.378906 -2.367188 6.390625 -2.046875 C 6.421875 -1.628906 6.453125 -1.34375 6.484375 -1.1875 C 6.523438 -1.039062 6.609375 -0.9375 6.734375 -0.875 Z M 4.484375 -3.890625 C 4.660156 -3.898438 4.832031 -3.96875 5 -4.09375 C 5.164062 -4.226562 5.296875 -4.40625 5.390625 -4.625 C 5.492188 -4.851562 5.546875 -5.109375 5.546875 -5.390625 C 5.546875 -5.734375 5.4375 -6.023438 5.21875 -6.265625 C 5.007812 -6.515625 4.75 -6.640625 4.4375 -6.640625 L 1.984375 -6.640625 L 1.984375 -3.890625 Z M 4.484375 -3.890625 "/></g></g></g><g fill="#ffffff" fill-opacity="1"><g transform="translate(219.33347, 254.85426)"><g><path d="M 4.125 -7.640625 C 4.800781 -7.640625 5.382812 -7.46875 5.875 -7.125 C 6.363281 -6.789062 6.726562 -6.332031 6.96875 -5.75 C 7.21875 -5.164062 7.34375 -4.523438 7.34375 -3.828125 C 7.34375 -3.109375 7.21875 -2.457031 6.96875 -1.875 C 6.726562 -1.300781 6.363281 -0.84375 5.875 -0.5 C 5.382812 -0.164062 4.800781 0 4.125 0 L 1.4375 0 C 1.289062 0 1.164062 -0.0507812 1.0625 -0.15625 C 0.957031 -0.257812 0.90625 -0.382812 0.90625 -0.53125 L 0.90625 -7.125 C 0.90625 -7.269531 0.957031 -7.390625 1.0625 -7.484375 C 1.164062 -7.585938 1.289062 -7.640625 1.4375 -7.640625 Z M 4.015625 -1 C 4.753906 -1 5.304688 -1.265625 5.671875 -1.796875 C 6.046875 -2.328125 6.234375 -3.003906 6.234375 -3.828125 C 6.234375 -4.640625 6.046875 -5.3125 5.671875 -5.84375 C 5.296875 -6.375 4.742188 -6.640625 4.015625 -6.640625 L 1.984375 -6.640625 L 1.984375 -1 Z M 4.015625 -1 "/></g></g></g><g fill="#ffffff" fill-opacity="1"><g transform="translate(229.094149, 254.85426)"><g><path d="M 6.375 -0.78125 C 6.445312 -0.695312 6.484375 -0.59375 6.484375 -0.46875 C 6.484375 -0.3125 6.425781 -0.1875 6.3125 -0.09375 C 6.207031 0 6.09375 0.046875 5.96875 0.046875 C 5.78125 0.046875 5.632812 -0.0234375 5.53125 -0.171875 L 3.421875 -3.015625 L 1.34375 -0.1875 C 1.226562 -0.03125 1.085938 0.046875 0.921875 0.046875 C 0.785156 0.046875 0.671875 0 0.578125 -0.09375 C 0.492188 -0.1875 0.453125 -0.289062 0.453125 -0.40625 C 0.453125 -0.53125 0.492188 -0.648438 0.578125 -0.765625 L 2.8125 -3.8125 L 0.5625 -6.84375 C 0.488281 -6.9375 0.453125 -7.039062 0.453125 -7.15625 C 0.453125 -7.300781 0.503906 -7.421875 0.609375 -7.515625 C 0.722656 -7.617188 0.847656 -7.671875 0.984375 -7.671875 C 1.066406 -7.671875 1.144531 -7.648438 1.21875 -7.609375 C 1.289062 -7.578125 1.351562 -7.523438 1.40625 -7.453125 L 3.5 -4.640625 L 5.578125 -7.421875 C 5.703125 -7.585938 5.84375 -7.671875 6 -7.671875 C 6.125 -7.671875 6.234375 -7.617188 6.328125 -7.515625 C 6.429688 -7.421875 6.484375 -7.3125 6.484375 -7.1875 C 6.484375 -7.070312 6.445312 -6.96875 6.375 -6.875 L 4.109375 -3.828125 Z M 6.375 -0.78125 "/></g></g></g></svg>
